<svg width="20" height="20" viewBox="0 0 20 20" fill="none" xmlns="http://www.w3.org/2000/svg">
<path d="M17.5 11.6667V12.5001C17.5 14.0917 16.6084 15.4751 15.2917 16.1751L15.8334 18.3334H14.1667L13.75 16.6667C13.6084 16.6667 13.475 16.6667 13.3334 16.6667H6.66669C6.52502 16.6667 6.39169 16.6667 6.25002 16.6667L5.83335 18.3334H4.16669L4.70835 16.1751C3.39169 15.4751 2.50002 14.0917 2.50002 12.5001V11.6667H1.66669V10.0001H16.6667V4.16675C16.6667 3.94573 16.5789 3.73377 16.4226 3.57749C16.2663 3.42121 16.0544 3.33341 15.8334 3.33341C15.4167 3.33341 15.1 3.61675 15 3.99175C15.525 4.44175 15.8334 5.10841 15.8334 5.83341H10.8334C10.8334 5.17037 11.0967 4.53449 11.5656 4.06565C12.0344 3.59681 12.6703 3.33341 13.3334 3.33341C13.3834 3.33341 13.425 3.33341 13.475 3.33341C13.8167 2.36675 14.7417 1.66675 15.8334 1.66675C16.4964 1.66675 17.1323 1.93014 17.6011 2.39898C18.07 2.86782 18.3334 3.50371 18.3334 4.16675V11.6667H17.5ZM15.8334 11.6667H4.16669V12.5001C4.16669 13.1631 4.43008 13.799 4.89892 14.2678C5.36776 14.7367 6.00365 15.0001 6.66669 15.0001H13.3334C13.9964 15.0001 14.6323 14.7367 15.1011 14.2678C15.57 13.799 15.8334 13.1631 15.8334 12.5001V11.6667Z" fill="#737D8C"/>
</svg>
